<?xml version="1.0" encoding="utf-8"?>
<!-- Generator: Adobe Illustrator 19.1.0, SVG Export Plug-In . SVG Version: 6.00 Build 0)  -->
<!DOCTYPE svg PUBLIC "-//W3C//DTD SVG 1.0//EN" "http://www.w3.org/TR/2001/REC-SVG-20010904/DTD/svg10.dtd">
<svg version="1.0" id="Layer_1" xmlns="http://www.w3.org/2000/svg" xmlns:xlink="http://www.w3.org/1999/xlink" x="0px" y="0px"
	 viewBox="0 0 1010 1010" style="enable-background:new 0 0 1010 1010;" xml:space="preserve">
<style type="text/css">
	.st0{fill:#FFFFFF;}
</style>
<path class="st0" d="M210.2,556h-2c10.2,61,39.2,117.5,84,162.3c6.8,6.8,13.8,12.9,21.1,19l1-1.9c-7.1-5.9-14.1-11.8-20.7-18.4
	C249.1,672.5,220.3,616,210.2,556z M785.4,609.7l1.8,1.3c6.6-17.8,11.6-36.9,14.7-54.9h-2C796.7,574,791.9,592.2,785.4,609.7z
	 M799.8,456h2c-10.2-62-39.2-118.5-84-163.3c-6.8-6.8-13.8-13.4-21.1-19.5l-1,1.6c7.1,5.9,14.1,12.7,20.7,19.3
	C760.9,338.6,789.7,395,799.8,456z M716.4,716.4c-6.7,6.7-13.6,12.9-20.7,18.9l1,1.8c7.3-6,14.3-12.4,21.1-19.2
	c6.8-6.8,13.2-13.8,19.2-21.1l-1.8-1C729.4,702.9,723.1,709.8,716.4,716.4z M554,210.2c19,3.1,37.2,8,54.7,14.4l0.8-1.8
	c-17.8-6.6-36.4-11.6-55.4-14.7V210.2z M554,799.8v2c19-3.1,37.9-8.1,55.7-14.7l-1.3-1.8C590.9,791.9,573,796.7,554,799.8z
	 M400.3,224.6c17.5-6.5,35.7-11.3,53.7-14.4v-2c-18,3.1-37.1,8.1-54.9,14.7L400.3,224.6z M399.3,787.2c17.8,6.6,36.7,11.6,54.7,14.7
	v-2c-18-3.1-36.4-8-53.9-14.4L399.3,787.2z M313.3,272.9c-7.3,6-14.3,12.4-21.1,19.2c-6.8,6.8-13.2,13.8-19.2,21.1l0.8,0.4l1,0.6
	c5.9-7.1,12.2-14.1,18.9-20.7s13.6-12.9,20.7-18.9l-0.6-1L313.3,272.9z M224.6,401.3l-1.8-0.8c-6.6,17.8-11.6,36.4-14.7,55.4h2
	C213.3,437,218.1,418.8,224.6,401.3z"/>
</svg>
