<?xml version="1.0" encoding="utf-8"?>
<!-- Generator: Adobe Illustrator 19.1.0, SVG Export Plug-In . SVG Version: 6.00 Build 0)  -->
<!DOCTYPE svg PUBLIC "-//W3C//DTD SVG 1.0//EN" "http://www.w3.org/TR/2001/REC-SVG-20010904/DTD/svg10.dtd">
<svg version="1.0" id="Layer_3" xmlns="http://www.w3.org/2000/svg" xmlns:xlink="http://www.w3.org/1999/xlink" x="0px" y="0px"
	 viewBox="0 0 1010 1010" style="enable-background:new 0 0 1010 1010;" xml:space="preserve">
<style type="text/css">
	.st0{fill:#FFFFFF;}
</style>
<path class="st0" d="M157.5,456h2c3.9-28,11-54.6,21.2-80l-1.7-0.7C168.7,401.3,161.5,428,157.5,456z M829.3,635l1.5,0.6l0.2,0.5
	c10.4-26,17.6-53.1,21.5-80.1h-2C846.5,583,839.4,609.6,829.3,635z M157.5,556c3.9,27,11.1,54,21.5,79.9l1.7-0.7
	c-10.1-25.4-17.3-52.2-21.2-79.2H157.5z M751.8,751.8c-9.8,9.8-20.1,18.9-30.8,27.4l1,1.8c10.9-8.6,21.3-17.8,31.2-27.7
	c9.9-9.9,19.1-20.3,27.7-31.2l-1.8-1C770.7,731.7,761.6,742,751.8,751.8z M230.8,289c8.5-10.7,17.6-21,27.4-30.8
	c9.8-9.8,20.1-18.9,30.8-27.4l-1-1.8c-10.9,8.6-21.3,17.8-31.2,27.7c-9.9,9.9-19.1,20.3-27.7,31.2l0.9,0.5L230.8,289z M505,854
	c-45.1,0-88.8-8.5-129.5-24.7l-1,1.7C416,847.6,459.9,856,505,856c45.1,0,89-8.4,130.4-25.1l-1-1.7C593.8,845.5,550.1,854,505,854z
	 M852.5,456c-3.9-28-11.1-55-21.5-80.9l-1.7,1.2c10.1,25.4,17.3,51.7,21.2,79.7H852.5z M230.8,721l-1.8,1
	c8.6,10.9,17.8,21.3,27.7,31.2c9.9,9.9,20.3,19.1,31.2,27.7l1-1.8c-10.7-8.5-21-17.6-30.8-27.4S239.3,731.7,230.8,721z M374.6,179.1
	l1,1.7C416.2,164.5,459.9,156,505,156c45.1,0,88.8,8.5,129.5,24.7l1-1.7C594,162.4,550.1,154,505,154
	C459.9,154,416,162.4,374.6,179.1z M779.2,289l1.8-1c-8.6-10.9-17.8-21.3-27.7-31.2c-9.9-9.9-20.3-19.1-31.2-27.7l-1,1.8
	c10.7,8.5,21,17.6,30.8,27.4S770.7,278.3,779.2,289z"/>
</svg>
