<?xml version="1.0" encoding="utf-8"?>
<!-- Generator: Adobe Illustrator 19.1.0, SVG Export Plug-In . SVG Version: 6.00 Build 0)  -->
<!DOCTYPE svg PUBLIC "-//W3C//DTD SVG 1.0//EN" "http://www.w3.org/TR/2001/REC-SVG-20010904/DTD/svg10.dtd">
<svg version="1.0" id="Layer_9" xmlns="http://www.w3.org/2000/svg" xmlns:xlink="http://www.w3.org/1999/xlink" x="0px" y="0px"
	 viewBox="0 0 1010 1010" style="enable-background:new 0 0 1010 1010;" xml:space="preserve">
<style type="text/css">
	.st0{fill:#FFFFFF;}
</style>
<path class="st0" d="M43.4,310c-19.6,46.4-32,95-36.9,145h2c4.9-49.7,17.2-98.1,36.8-144.2c1.5-3.6,3.1-7.2,4.7-10.8l-1.7-1
	C46.5,302.6,44.9,306.3,43.4,310z M964.8,699.2c-1.5,3.6-3.1,7.2-4.7,10.8l1.7,1c1.6-3.6,3.2-7.3,4.8-11c19.6-46.4,32-95,36.9-145
	h-2C996.6,604.7,984.3,653.1,964.8,699.2z M1001.5,455h2c-4.9-50-17.3-98.6-36.9-145c-1.6-3.7-3.2-7.4-4.8-11l-1.7,1
	c1.6,3.6,3.2,7.2,4.7,10.8C984.3,356.9,996.6,405.3,1001.5,455z M8.5,555h-2c4.9,50,17.3,98.6,36.9,145c1.6,3.7,3.2,7.4,4.8,11
	l1.7-1c-1.6-3.6-3.2-7.2-4.7-10.8C25.7,653.1,13.4,604.7,8.5,555z M310.8,45.2C372.3,19.2,437.6,6,505,6s132.7,13.2,194.2,39.2
	c59.4,25.1,112.8,61.1,158.6,106.9c19.1,19.1,36.6,39.6,52.2,61.3l1.7-1c-15.7-21.8-33.2-42.4-52.5-61.7
	c-46-46-99.6-82.1-159.2-107.4C638.2,17.2,572.6,4,505,4c-67.6,0-133.2,13.2-195,39.4c-3.7,1.6-7.4,3.2-11,4.8l1,1.7
	C303.6,48.3,307.2,46.7,310.8,45.2z M857.8,857.8c-19.1,19.1-39.6,36.6-61.3,52.2l1,1.7c21.8-15.7,42.4-33.2,61.7-52.5
	s36.8-39.9,52.5-61.7l-1.7-1C894.4,818.2,877,838.7,857.8,857.8z M152.2,152.2c19.1-19.1,39.6-36.6,61.3-52.2l-1-1.7
	c-21.8,15.7-42.4,33.2-61.7,52.5s-36.8,39.9-52.5,61.7l1.7,1C115.6,191.8,133,171.3,152.2,152.2z M699.2,964.8
	c-61.5,26-126.9,39.2-194.2,39.2s-132.7-13.2-194.2-39.2c-59.4-25.1-112.8-61.1-158.6-106.9c-19.1-19.1-36.6-39.6-52.2-61.3l-1.7,1
	c15.7,21.8,33.2,42.4,52.5,61.7c46,46,99.6,82.1,159.2,107.4c61.8,26.1,127.4,39.4,195,39.4c67.6,0,133.2-13.2,195-39.4
	c3.7-1.6,7.4-3.2,11-4.8l-1-1.7C706.4,961.7,702.8,963.3,699.2,964.8z"/>
</svg>
