<?xml version="1.0" encoding="utf-8"?>
<!-- Generator: Adobe Illustrator 19.1.0, SVG Export Plug-In . SVG Version: 6.00 Build 0)  -->
<!DOCTYPE svg PUBLIC "-//W3C//DTD SVG 1.0//EN" "http://www.w3.org/TR/2001/REC-SVG-20010904/DTD/svg10.dtd">
<svg version="1.0" id="Layer_7" xmlns="http://www.w3.org/2000/svg" xmlns:xlink="http://www.w3.org/1999/xlink" x="0px" y="0px"
	 viewBox="0 0 1010 1010" style="enable-background:new 0 0 1010 1010;" xml:space="preserve">
<style type="text/css">
	.st0{fill:#FFFFFF;}
</style>
<path class="st0" d="M554,56.7v2c43,4.7,85.3,15.6,125.3,32.5c1.7,0.7,3.6,1.5,5.3,2.2l1.1-1.7c-1.8-0.8-4-1.5-5.8-2.3
	C639.7,72.4,598,61.5,554,56.7z M920.6,329.5c-0.8-1.8-1.5-3.5-2.3-5.3l-1.7,1c0.7,1.7,1.5,3.4,2.2,5.1
	C942.1,385.6,954,444.4,954,505s-11.9,119.4-35.3,174.8c-22.6,53.5-55,101.5-96.2,142.7c-16,16-33.1,30.7-51.1,44l1,1.7
	c18.1-13.4,35.3-28.2,51.5-44.3c41.4-41.4,73.9-89.7,96.7-143.4C944.1,624.9,956,565.9,956,505C956,444.1,944.1,385.1,920.6,329.5z
	 M143.5,771.4l-1.7,1c13.4,18.1,28.2,35.3,44.3,51.5c16.1,16.1,33.3,30.9,51.5,44.3l1-1.7c-18-13.3-35-28-51.1-44
	C171.5,806.5,156.8,789.4,143.5,771.4z M324.1,91.7l1,1.7c1.7-0.7,2.9-1.5,4.6-2.2c40-16.9,82.3-27.8,124.3-32.5v-2
	c-43,4.7-84.8,15.7-125,32.7C327.2,90.2,325.9,91,324.1,91.7z M866.5,238.6l1.7-1c-13.4-18.1-28.2-35.3-44.3-51.5
	c-16.1-16.1-33.3-30.9-51.5-44.3l-1,1.7c18,13.3,35,28,51.1,44C838.5,203.5,853.2,220.6,866.5,238.6z M679.3,918.7
	c-40,16.9-82.3,27.8-125.3,32.5v2c44-4.7,85.8-15.7,126-32.7c1.8-0.8,3.8-1.5,5.6-2.3l-1.1-1.7C682.8,917.3,681,918,679.3,918.7z
	 M186.1,186.1c-41.4,41.4-73.9,89.7-96.7,143.4C65.9,385.1,54,444.1,54,505c0,60.9,11.9,119.9,35.4,175.5c0.8,1.8,1.5,3.5,2.3,5.3
	l1.7-1c-0.7-1.7-1.5-3.4-2.2-5.1C67.9,624.4,56,565.6,56,505s11.9-119.4,35.3-174.8c22.6-53.5,55-101.5,96.2-142.7
	c16-16,33.1-30.7,51.1-44l-1-1.7C219.4,155.2,202.2,170,186.1,186.1z M325.1,916.5l-1,1.7c1.8,0.8,3,1.5,4.8,2.3
	c40.2,17,82,28,125,32.7v-2c-42-4.7-84.3-15.6-124.3-32.5C328,918,326.8,917.3,325.1,916.5z"/>
</svg>
