<?xml version="1.0" encoding="utf-8"?>
<!-- Generator: Adobe Illustrator 19.1.0, SVG Export Plug-In . SVG Version: 6.00 Build 0)  -->
<!DOCTYPE svg PUBLIC "-//W3C//DTD SVG 1.0//EN" "http://www.w3.org/TR/2001/REC-SVG-20010904/DTD/svg10.dtd">
<svg version="1.0" id="Layer_5" xmlns="http://www.w3.org/2000/svg" xmlns:xlink="http://www.w3.org/1999/xlink" x="0px" y="0px"
	 viewBox="0 0 1010 1010" style="enable-background:new 0 0 1010 1010;" xml:space="preserve">
<style type="text/css">
	.st0{fill:#FFFFFF;}
</style>
<path class="st0" d="M348.8,874.7C382.8,889,418,898.4,454,902.9v-2c-36-4.5-70.8-13.9-104.4-28L348.8,874.7z M902.9,456
	c-4.5-37-14-72.2-28.3-106.2l-1.7,1.3c14.2,33.6,23.5,67.9,28,104.9H902.9z M187.2,746.2l-1.7,1c11,14.5,23,28.3,36,41.3
	s26.8,25,41.3,36l1-1.7c-14.3-10.9-28-22.8-40.9-35.7C210,774.2,198.1,760.6,187.2,746.2z M107.1,556c4.5,36,14,71.2,28.3,105.2
	l1.7-0.8c-14.2-33.6-23.5-68.4-28-104.4H107.1z M900.9,556c-4.5,36-14,71-28.3,104.8c-20.1,47.5-48.9,89.9-85.5,126.6
	s-79.8,65.3-127.3,85.4C626,887.1,591,896.4,554,900.9v2c37-4.5,72.5-14,106.6-28.4c47.8-20.2,90.9-49.1,127.7-85.9
	s65.9-79.2,86.1-127c14.4-34.1,24-69.6,28.6-105.6H900.9z M221.5,221.5c-36.8,36.8-65.7,80.2-85.9,128
	c-14.4,34.1-23.9,69.6-28.4,106.6h2c4.5-37,14-72,28.3-105.8c20.1-47.5,48.9-90.4,85.5-127.1c36.6-36.6,78.8-65.5,126.3-85.6
	C383,123.2,418,113.6,454,109.1v-2c-36,4.5-71.5,14-105.6,28.4C300.7,155.7,258.3,184.6,221.5,221.5z M822.8,263.8l1.7-1
	c-11-14.5-23-28.3-36-41.3s-26.8-25-41.3-36l-1,1.7c14.3,10.9,28,22.8,40.9,35.7C800,235.8,811.9,249.4,822.8,263.8z M660.2,135.3
	C626.2,121,591,111.6,554,107.1v2c37,4.5,71.3,13.9,104.9,28L660.2,135.3z"/>
</svg>
